<?xml version="1.0" standalone="no"?>
<!DOCTYPE svg PUBLIC "-//W3C//DTD SVG 20010904//EN"
 "http://www.w3.org/TR/2001/REC-SVG-20010904/DTD/svg10.dtd">
<svg version="1.0" xmlns="http://www.w3.org/2000/svg"
 width="707.000000pt" height="707.000000pt" viewBox="0 0 707.000000 707.000000"
 preserveAspectRatio="xMidYMid meet">
<metadata>
Created by potrace 1.14, written by Peter Selinger 2001-2017
</metadata>
<g transform="translate(0.000000,707.000000) scale(0.100000,-0.100000)"
fill="#000000" stroke="none">
<path d="M2375 6712 c-2 -3 -23 -6 -47 -8 -24 -2 -54 -6 -68 -8 -60 -11 -86
-17 -105 -23 -11 -4 -22 -7 -25 -8 -4 -1 -49 -15 -100 -31 -8 -3 -17 -5 -20
-6 -3 0 -14 -5 -25 -11 -11 -6 -23 -10 -27 -9 -5 1 -8 -3 -8 -9 0 -6 -7 -9
-15 -5 -8 3 -15 1 -15 -5 0 -6 -4 -7 -10 -4 -5 3 -10 3 -10 -2 0 -8 -54 -35
-65 -33 -3 0 -13 -6 -21 -15 -9 -8 -19 -13 -24 -10 -4 3 -11 -2 -14 -11 -3 -8
-10 -13 -15 -10 -5 4 -11 3 -13 -1 -5 -12 -92 -68 -100 -65 -5 1 -8 -3 -8 -10
0 -6 -2 -9 -5 -6 -3 3 -18 -6 -33 -21 -15 -14 -55 -52 -89 -83 -34 -31 -59
-59 -55 -62 3 -3 -2 -6 -11 -6 -9 0 -16 -3 -15 -7 3 -15 -14 -43 -23 -37 -5 3
-9 2 -8 -3 3 -20 -2 -34 -11 -28 -6 4 -10 3 -9 -2 3 -20 -2 -34 -11 -28 -6 4
-9 3 -8 -2 4 -14 -13 -53 -23 -53 -6 0 -8 -4 -4 -9 3 -5 -1 -16 -9 -24 -8 -8
-12 -17 -9 -21 4 -3 1 -6 -6 -6 -7 0 -10 -4 -7 -8 3 -5 -1 -19 -8 -33 -7 -13
-13 -27 -14 -31 -1 -5 -3 -10 -3 -13 -3 -12 -6 -21 -12 -35 -3 -8 -9 -28 -13
-45 -4 -16 -8 -32 -9 -35 -1 -3 -4 -23 -8 -45 -4 -22 -10 -58 -14 -80 -10 -54
-9 -393 1 -475 13 -103 14 -113 21 -145 4 -16 8 -39 9 -50 2 -11 6 -36 10 -55
4 -19 8 -42 10 -50 2 -8 6 -26 9 -40 4 -14 9 -36 11 -50 3 -14 9 -40 15 -59 6
-19 8 -37 6 -42 -3 -4 -1 -9 4 -11 5 -1 10 -16 12 -33 2 -16 7 -35 12 -42 5
-7 6 -17 2 -23 -3 -5 -1 -10 5 -10 7 0 10 -7 7 -15 -4 -8 -2 -17 3 -20 6 -4
10 -19 10 -35 0 -16 5 -32 11 -35 6 -4 8 -13 5 -21 -3 -8 -2 -14 3 -14 4 0 8
-6 9 -12 1 -22 10 -52 26 -90 9 -21 13 -38 10 -38 -4 0 -1 -6 5 -14 6 -7 12
-25 13 -40 1 -14 6 -26 10 -26 4 0 8 -8 8 -19 0 -10 11 -48 24 -85 13 -36 22
-66 19 -66 -3 0 0 -7 7 -15 7 -8 9 -15 5 -15 -4 0 -2 -7 5 -15 7 -8 9 -15 5
-15 -4 0 -2 -7 5 -15 7 -8 10 -15 6 -15 -4 0 0 -13 9 -30 9 -16 13 -30 9 -30
-4 0 -1 -7 6 -15 6 -8 9 -19 6 -24 -4 -5 -1 -13 5 -16 5 -4 8 -13 5 -21 -3 -8
0 -14 6 -14 6 0 8 -3 5 -7 -4 -3 -2 -12 4 -19 6 -8 9 -21 5 -29 -3 -8 -2 -15
3 -15 4 0 8 -6 9 -12 3 -26 10 -63 12 -65 2 -2 3 -6 4 -10 1 -5 4 -12 7 -18 3
-5 5 -22 4 -37 0 -16 2 -28 5 -28 5 0 9 -77 10 -185 0 -71 -6 -214 -15 -345
-4 -52 -8 -115 -10 -140 -1 -25 -3 -45 -4 -45 -3 0 -10 -121 -13 -217 -2 -43
-5 -78 -8 -78 -3 0 -5 -39 -5 -86 0 -47 -2 -87 -5 -89 -13 -8 0 -476 15 -585
4 -25 8 -58 10 -75 2 -16 4 -30 5 -30 3 0 6 -17 14 -65 2 -14 5 -27 7 -30 1
-3 3 -9 4 -15 1 -5 5 -17 8 -25 4 -8 9 -26 11 -40 3 -14 5 -26 7 -27 1 -2 2
-6 3 -10 1 -5 5 -14 9 -20 5 -7 6 -17 3 -22 -3 -5 1 -14 9 -21 8 -7 13 -16 10
-20 -3 -5 -1 -11 5 -15 6 -4 8 -11 5 -16 -4 -5 -1 -9 5 -9 6 0 8 -4 5 -10 -3
-5 -1 -10 4 -10 6 0 11 -7 11 -15 0 -8 11 -35 25 -60 14 -25 22 -45 18 -45 -4
0 -3 -4 2 -8 15 -10 47 -72 39 -72 -4 0 2 -9 14 -21 12 -11 20 -24 17 -30 -4
-5 -2 -9 3 -9 8 0 25 -29 32 -55 1 -5 11 -16 21 -23 11 -7 19 -20 19 -28 0 -8
5 -14 12 -14 6 0 8 -3 5 -7 -4 -3 2 -13 13 -20 11 -8 18 -18 16 -22 -3 -4 4
-14 15 -21 10 -8 19 -20 19 -28 0 -7 16 -30 36 -50 62 -63 74 -77 74 -87 0 -6
11 -19 25 -29 14 -10 25 -25 25 -33 0 -8 3 -13 7 -11 5 2 20 -9 35 -24 15 -15
25 -28 22 -28 -2 0 4 -8 14 -18 9 -11 20 -17 25 -15 4 2 7 0 7 -5 0 -6 16 -26
35 -45 19 -19 35 -33 35 -31 0 3 18 -13 40 -35 23 -22 44 -41 48 -42 4 -1 18
-6 32 -12 14 -6 28 -10 33 -9 4 1 7 -2 7 -7 0 -5 8 -8 18 -6 9 1 25 -2 36 -7
14 -8 17 -7 11 2 -6 10 -3 10 11 2 10 -5 27 -7 38 -3 12 4 33 7 49 6 15 0 27
3 27 7 0 4 8 8 18 8 10 0 23 5 30 12 7 7 12 8 12 3 0 -5 7 1 16 13 8 12 22 22
30 22 8 0 14 3 14 8 0 4 10 18 23 32 56 61 85 183 63 270 -6 26 -16 84 -22
135 -2 17 -6 48 -9 70 -3 22 -8 58 -10 80 -2 22 -7 74 -11 115 -4 41 -8 105
-8 143 -1 37 -3 67 -6 67 -17 0 5 545 25 630 4 14 8 41 10 60 7 61 37 184 51
212 8 16 12 28 8 28 -4 0 -1 7 6 15 7 8 9 15 5 15 -4 0 -2 7 5 15 7 8 9 15 5
15 -4 0 -2 6 4 14 7 8 14 25 16 37 3 13 9 25 15 27 6 2 8 8 4 13 -3 5 -1 9 5
9 6 0 8 6 5 14 -3 7 1 20 8 27 7 8 14 21 16 29 2 8 8 17 13 18 5 2 7 8 3 13
-3 5 0 9 7 9 7 0 10 3 6 6 -8 9 21 64 34 64 6 0 8 4 4 9 -3 5 1 16 9 24 8 8
12 17 9 21 -4 3 -2 6 3 6 5 0 18 16 28 35 11 19 23 35 28 35 4 0 8 5 8 11 0
17 47 69 55 61 5 -4 5 -2 2 5 -4 6 6 22 21 35 15 13 31 31 35 40 3 9 18 25 34
35 15 10 36 26 45 36 23 22 37 21 68 -4 14 -11 19 -17 11 -13 -9 5 -12 3 -7
-5 4 -6 11 -9 15 -7 8 5 143 -136 143 -151 1 -4 9 -14 19 -21 11 -7 19 -20 19
-28 0 -8 5 -14 11 -14 5 0 7 -4 4 -10 -3 -5 -1 -10 5 -10 6 0 14 -8 17 -17 4
-10 13 -24 20 -31 7 -8 11 -17 8 -22 -3 -4 2 -11 11 -14 8 -3 13 -10 10 -15
-4 -5 -3 -11 1 -13 12 -5 95 -169 89 -175 -3 -3 2 -12 10 -20 8 -9 13 -22 10
-29 -3 -8 -1 -14 4 -14 8 0 26 -57 22 -72 -1 -5 2 -8 6 -8 7 0 24 -53 38 -115
19 -84 34 -157 33 -163 -1 -4 0 -9 1 -12 1 -3 4 -18 6 -35 1 -16 5 -52 9 -80
15 -134 22 -408 11 -443 -4 -11 -2 -23 4 -27 6 -3 7 -11 4 -17 -4 -6 -8 -38
-10 -72 -9 -155 -12 -204 -19 -251 -8 -68 -14 -111 -20 -171 -3 -28 -8 -61
-10 -74 -26 -135 -25 -204 4 -275 7 -16 11 -30 9 -30 -2 -1 13 -17 33 -37 21
-20 35 -39 32 -41 -2 -3 5 -8 16 -12 12 -3 19 -11 16 -16 -3 -5 2 -6 11 -2 12
4 15 3 10 -5 -5 -8 0 -12 13 -12 11 0 23 -5 26 -10 4 -6 10 -8 15 -5 5 3 11 1
14 -3 3 -5 17 -8 31 -7 14 2 27 0 30 -5 5 -8 103 0 125 11 7 3 23 7 38 8 7 0
11 5 8 10 -5 7 17 19 46 25 3 0 10 5 15 10 5 5 2 6 -7 2 -8 -5 -2 3 14 15 16
13 46 41 66 61 21 20 40 34 44 31 3 -4 6 -1 6 5 0 6 29 41 65 78 36 37 65 71
65 76 0 4 7 8 16 8 8 0 13 4 9 9 -3 5 9 21 27 36 18 15 26 24 18 21 -8 -4 -5
1 8 10 12 9 22 21 22 27 0 6 7 17 15 26 46 51 53 60 47 65 -3 3 0 6 6 6 6 0
14 9 17 20 4 11 11 18 16 15 5 -4 9 3 9 13 0 11 7 23 16 26 8 3 12 10 9 16 -3
5 -1 10 4 10 6 0 11 7 11 15 0 9 7 18 15 21 8 4 13 10 10 14 -3 4 2 13 10 20
8 7 15 19 15 26 0 8 5 14 11 14 5 0 7 4 4 10 -3 5 -1 10 5 10 6 0 8 5 5 10 -3
6 -1 10 4 10 6 0 11 5 11 12 0 6 8 20 18 31 9 11 11 17 5 13 -9 -5 -11 -2 -7
8 3 9 10 16 14 16 7 0 17 23 25 59 2 8 7 17 12 20 4 3 9 11 10 16 1 6 10 30
18 55 23 65 22 65 22 70 0 3 6 16 13 30 8 14 13 28 12 32 -1 4 3 20 10 35 6
15 12 37 14 48 3 24 12 60 14 60 2 0 3 8 14 95 4 25 8 59 11 75 13 92 25 450
16 469 -2 4 -5 54 -7 110 -1 55 -5 137 -9 181 -3 44 -8 109 -11 145 -2 36 -6
88 -9 115 -2 28 -7 86 -10 130 -3 44 -8 112 -11 150 -6 90 -5 379 2 425 3 19
6 45 6 58 0 12 3 22 7 22 4 0 7 8 8 18 0 9 4 28 8 42 4 14 7 33 7 42 -1 10 4
20 9 23 5 4 7 11 4 16 -4 5 -2 9 2 9 5 0 10 9 11 20 4 44 6 50 14 50 5 0 7 4
3 9 -3 5 -1 12 5 16 6 4 8 11 4 16 -3 5 -1 15 4 22 6 7 11 15 11 20 1 4 1 8 2
10 0 1 3 13 5 27 3 14 9 27 14 28 6 2 7 8 4 13 -3 6 0 16 6 24 7 8 9 15 5 15
-4 0 -3 6 3 13 6 6 10 14 10 17 -1 3 7 32 17 65 10 33 18 63 17 68 -1 4 3 7 9
7 5 0 8 4 4 9 -3 5 -1 20 4 33 19 47 24 63 23 71 -1 4 2 7 7 7 5 0 7 9 4 20
-3 11 -1 20 4 20 5 0 10 12 11 28 1 15 7 29 12 30 6 2 8 7 5 12 -2 4 7 41 20
81 14 41 25 75 25 77 0 1 0 3 1 5 0 1 2 11 4 22 2 11 6 31 10 45 3 14 8 32 10
40 2 8 4 15 5 15 1 0 3 15 6 33 2 18 9 42 14 53 6 10 8 19 4 19 -3 0 -1 6 5
13 6 8 8 17 5 20 -4 3 -3 14 1 24 4 10 9 25 10 33 1 8 6 35 10 60 12 64 14 80
20 125 2 22 7 63 11 90 8 65 10 358 2 411 -3 23 -9 47 -13 54 -5 9 -4 11 3 6
9 -5 9 -1 3 17 -5 13 -12 37 -15 53 -3 16 -10 49 -16 74 -6 25 -11 51 -12 58
-1 6 -6 12 -11 12 -6 0 -8 3 -5 6 4 3 0 17 -7 31 -8 15 -12 30 -9 35 3 4 0 8
-5 8 -6 0 -11 4 -11 9 0 5 -5 22 -12 38 -6 15 -10 32 -9 36 1 5 -3 6 -8 2 -6
-3 -13 6 -17 20 -3 14 -11 25 -17 25 -6 0 -8 3 -5 6 3 3 -5 17 -18 31 -13 14
-22 28 -20 30 2 3 -12 22 -32 43 -21 21 -47 49 -59 62 -27 29 -84 78 -90 78
-3 0 -23 16 -45 35 -23 19 -45 32 -49 29 -5 -3 -9 0 -9 5 0 6 -7 11 -15 11 -8
0 -15 5 -15 10 0 6 -7 10 -15 10 -8 0 -15 5 -15 11 0 5 -4 8 -8 5 -5 -3 -19 4
-30 15 -12 11 -22 17 -22 15 0 -3 -16 3 -35 14 -20 11 -42 20 -50 20 -8 0 -15
5 -15 11 0 5 -4 8 -9 4 -5 -3 -16 1 -24 9 -8 8 -17 13 -20 10 -3 -3 -16 0 -29
7 -12 7 -26 14 -30 15 -5 1 -10 3 -13 4 -3 1 -8 3 -12 4 -5 2 -26 8 -48 14
-22 6 -43 12 -47 12 -4 1 -22 6 -40 11 -77 23 -168 33 -308 32 -108 -1 -133
-3 -235 -19 -22 -4 -48 -7 -57 -7 -10 -1 -18 -5 -18 -10 0 -5 -6 -7 -14 -4 -7
3 -19 0 -25 -6 -6 -6 -11 -8 -11 -5 0 4 -15 1 -32 -7 -18 -7 -36 -14 -40 -14
-5 -1 -10 -2 -13 -2 -3 -1 -9 -3 -15 -4 -5 -1 -12 -4 -15 -5 -3 -1 -8 -3 -12
-5 -5 -1 -21 -7 -38 -14 -16 -7 -34 -14 -40 -15 -5 -2 -23 -9 -40 -16 -16 -7
-32 -14 -35 -15 -3 0 -15 -6 -26 -13 -12 -6 -24 -8 -28 -5 -3 3 -6 1 -6 -6 0
-7 -4 -10 -9 -6 -5 3 -12 1 -16 -5 -4 -6 -11 -8 -16 -5 -5 4 -9 1 -9 -5 0 -6
-4 -9 -9 -5 -5 3 -12 1 -16 -5 -4 -6 -11 -8 -16 -5 -5 4 -9 2 -9 -3 0 -9 -43
-22 -86 -27 -11 -1 -26 -5 -32 -9 -7 -4 -12 -2 -12 5 0 7 -3 9 -7 6 -3 -4 -12
-2 -20 4 -7 6 -13 8 -13 4 0 -4 -7 -2 -15 5 -8 7 -15 10 -15 6 0 -4 -15 1 -32
11 -18 9 -36 16 -40 15 -5 -1 -8 1 -8 6 0 4 -12 8 -27 9 -15 0 -32 8 -37 15
-6 8 -17 13 -23 11 -7 -3 -13 0 -13 7 0 6 -4 9 -8 6 -5 -3 -21 2 -36 10 -16 7
-32 14 -36 14 -4 0 -25 8 -46 17 -22 9 -48 18 -58 20 -11 2 -25 8 -31 13 -7 5
-14 7 -17 5 -3 -3 -18 0 -34 6 -34 14 -28 12 -79 23 -54 12 -62 13 -125 21
-63 8 -289 13 -295 7z m2200 -371 c0 -1 16 -4 35 -6 19 -1 36 -8 38 -14 2 -6
8 -9 13 -5 10 6 69 -26 69 -39 0 -4 5 -5 10 -2 6 3 10 2 10 -2 0 -5 14 -17 30
-27 17 -9 28 -22 24 -27 -3 -5 -1 -8 4 -7 10 3 62 -48 62 -60 0 -4 9 -13 20
-20 11 -7 20 -17 20 -23 0 -5 9 -19 20 -31 11 -12 20 -28 20 -35 0 -7 5 -13
11 -13 6 0 8 -7 5 -17 -4 -10 -4 -14 0 -11 7 8 67 -98 67 -119 0 -7 4 -13 8
-13 7 0 24 -49 21 -62 -1 -5 2 -8 8 -8 5 0 9 -3 8 -7 -1 -8 7 -32 23 -68 5
-11 11 -31 14 -45 2 -14 13 -56 24 -94 11 -38 18 -73 15 -77 -3 -5 -1 -9 4 -9
6 0 14 -28 18 -62 8 -65 10 -76 14 -80 10 -12 21 -425 11 -443 -3 -5 -6 -16
-7 -25 -7 -63 -52 -200 -65 -200 -6 0 -7 -4 -4 -10 3 -5 1 -10 -6 -10 -7 0
-10 -3 -6 -6 3 -3 -5 -17 -19 -31 -13 -13 -24 -28 -24 -33 0 -6 -6 -10 -14
-10 -8 0 -17 -6 -19 -12 -3 -7 -6 -3 -7 10 -2 12 -3 25 -5 30 -11 41 -16 60
-19 77 -1 11 -8 33 -14 48 -7 15 -11 31 -10 35 1 8 -7 30 -29 80 -8 18 -11 37
-8 42 3 6 1 10 -5 10 -7 0 -9 7 -6 16 4 10 2 13 -6 8 -8 -5 -9 -2 -5 9 3 10 2
17 -3 17 -6 0 -10 5 -10 11 0 6 -11 33 -24 59 -13 27 -22 51 -19 54 4 3 1 6
-6 6 -7 0 -9 5 -6 10 3 6 2 10 -4 10 -6 0 -7 7 -4 17 4 10 2 14 -4 10 -9 -6
-22 16 -27 46 0 4 -7 12 -15 16 -7 5 -11 13 -7 19 3 5 -1 13 -10 16 -9 4 -14
13 -10 22 3 8 2 12 -3 9 -9 -5 -27 32 -23 48 1 5 -1 6 -6 3 -5 -3 -21 18 -37
47 -15 29 -31 54 -35 57 -5 3 -10 11 -12 19 -2 7 -12 24 -23 36 -38 43 -46 55
-38 55 4 0 4 4 -2 8 -18 13 -50 56 -36 47 10 -5 12 -4 7 3 -4 7 -14 12 -23 12
-10 0 -13 6 -9 16 3 8 2 13 -2 10 -5 -3 -16 11 -27 30 -10 19 -22 34 -27 34
-4 0 -8 6 -8 14 0 8 -7 17 -16 20 -9 4 -14 9 -11 12 2 3 -6 16 -20 30 -13 13
-21 29 -17 36 4 6 3 8 -3 5 -5 -3 -20 12 -34 33 -13 22 -27 40 -31 40 -5 0 -8
7 -8 15 0 8 -5 15 -11 15 -5 0 -8 4 -5 9 4 5 3 11 -1 13 -5 1 -21 23 -36 47
-16 24 -23 40 -15 36 7 -3 4 1 -6 9 -11 9 -17 16 -13 16 4 0 0 11 -9 24 -8 14
-15 28 -14 31 1 3 -1 19 -5 36 -4 18 -2 35 5 44 6 8 9 19 6 24 -4 5 1 14 10
19 9 5 17 13 17 18 1 5 5 8 10 7 4 -2 7 4 7 12 0 14 12 20 33 16 5 -1 6 3 3 8
-6 9 105 51 154 59 13 2 26 4 27 6 3 3 88 0 88 -3z"/>
<path d="M3319 2963 c-13 -16 -12 -17 4 -4 16 13 21 21 13 21 -2 0 -10 -8 -17
-17z"/>
</g>
</svg>
