<svg width="33" height="32" viewBox="0 0 33 32" fill="none" xmlns="http://www.w3.org/2000/svg">
<path d="M18.1448 0C19.9447 0.00479975 20.8583 0.0143993 21.647 0.0367981L21.9574 0.0479975C22.3158 0.0607968 22.6694 0.076796 23.0966 0.095995C24.7989 0.175991 25.9604 0.444777 26.9796 0.839957C28.0355 1.24634 28.9251 1.79671 29.8146 2.68466C30.6282 3.48446 31.2577 4.45191 31.6593 5.51972C32.0545 6.53887 32.3233 7.70041 32.4033 9.40432C32.4225 9.8299 32.4385 10.1835 32.4513 10.5435L32.4609 10.8538C32.4849 11.641 32.4945 12.5546 32.4977 14.3545L32.4993 15.548V17.6439C32.5032 18.8109 32.4909 19.9779 32.4625 21.1445L32.4529 21.4549C32.4401 21.8149 32.4241 22.1685 32.4049 22.594C32.3249 24.298 32.0529 25.4579 31.6593 26.4786C31.2588 27.547 30.6292 28.5147 29.8146 29.3137C29.0146 30.127 28.0472 30.7564 26.9796 31.1584C25.9604 31.5536 24.7989 31.8224 23.0966 31.9024C22.7169 31.9202 22.3372 31.9362 21.9574 31.9504L21.647 31.96C20.8583 31.9824 19.9447 31.9936 18.1448 31.9968L16.9513 31.9984H14.857C13.6895 32.0024 12.5219 31.9901 11.3548 31.9616L11.0444 31.952C10.6646 31.9376 10.2849 31.921 9.90524 31.9024C8.20293 31.8224 7.04139 31.5536 6.02064 31.1584C4.95297 30.7574 3.98589 30.1278 3.18719 29.3137C2.3729 28.5142 1.74282 27.5467 1.34088 26.4786C0.9457 25.4595 0.676914 24.298 0.596918 22.594C0.579093 22.2144 0.563094 21.8347 0.548921 21.4549L0.540921 21.1445C0.511438 19.9779 0.498104 18.8109 0.500923 17.6439V14.3545C0.496458 13.1875 0.508192 12.0205 0.536121 10.8538L0.547321 10.5435C0.56012 10.1835 0.576119 9.8299 0.595318 9.40432C0.675314 7.70041 0.9441 6.54046 1.33928 5.51972C1.74104 4.45082 2.37238 3.48306 3.18879 2.68466C3.98729 1.87106 4.95372 1.24152 6.02064 0.839957C7.04139 0.444777 8.20133 0.175991 9.90524 0.095995C10.3308 0.076796 10.686 0.0607968 11.0444 0.0479975L11.3548 0.0383979C12.5214 0.00997182 13.6884 -0.0022954 14.8554 0.0015998L18.1448 0ZM16.5001 7.99959C14.3785 7.99959 12.3438 8.8424 10.8435 10.3426C9.34332 11.8428 8.50051 13.8776 8.50051 15.9992C8.50051 18.1208 9.34332 20.1555 10.8435 21.6557C12.3438 23.156 14.3785 23.9988 16.5001 23.9988C18.6217 23.9988 20.6565 23.156 22.1567 21.6557C23.6569 20.1555 24.4997 18.1208 24.4997 15.9992C24.4997 13.8776 23.6569 11.8428 22.1567 10.3426C20.6565 8.8424 18.6217 7.99959 16.5001 7.99959ZM16.5001 11.1994C17.1304 11.1993 17.7546 11.3234 18.337 11.5645C18.9193 11.8056 19.4485 12.1591 19.8943 12.6047C20.34 13.0503 20.6937 13.5794 20.935 14.1617C21.1763 14.7439 21.3006 15.3681 21.3007 15.9984C21.3008 16.6287 21.1767 17.2529 20.9356 17.8352C20.6945 18.4176 20.341 18.9468 19.8954 19.3926C19.4498 19.8383 18.9207 20.192 18.3384 20.4333C17.7561 20.6746 17.132 20.7988 16.5017 20.7989C15.2287 20.7989 14.0079 20.2932 13.1078 19.3931C12.2076 18.493 11.702 17.2722 11.702 15.9992C11.702 14.7262 12.2076 13.5054 13.1078 12.6052C14.0079 11.7051 15.2287 11.1994 16.5017 11.1994M24.9013 5.59971C24.3709 5.59971 23.8622 5.81042 23.4871 6.18547C23.1121 6.56052 22.9014 7.06921 22.9014 7.59961C22.9014 8.13002 23.1121 8.6387 23.4871 9.01375C23.8622 9.38881 24.3709 9.59951 24.9013 9.59951C25.4317 9.59951 25.9404 9.38881 26.3154 9.01375C26.6905 8.6387 26.9012 8.13002 26.9012 7.59961C26.9012 7.06921 26.6905 6.56052 26.3154 6.18547C25.9404 5.81042 25.4317 5.59971 24.9013 5.59971Z" fill="#023069"/>
</svg>
