<svg width="17" height="16" viewBox="0 0 17 16" fill="none" xmlns="http://www.w3.org/2000/svg">
<path d="M0.501142 7.75839C0.501142 3.2986 3.99289 0 8.50057 0C13.0082 0 16.5 3.2986 16.5 7.75839C16.5 12.2157 13.0082 15.5168 8.50057 15.5168C7.69313 15.5168 6.91468 15.4098 6.18824 15.2094C6.04629 15.1707 5.89531 15.1828 5.76127 15.2433L4.16738 15.9437C4.07121 15.9864 3.966 16.0048 3.86103 15.9972C3.75607 15.9896 3.65459 15.9563 3.56554 15.9003C3.4765 15.8442 3.40263 15.7671 3.35047 15.6757C3.2983 15.5843 3.26945 15.4815 3.26644 15.3763L3.21945 13.9497C3.21643 13.8639 3.1962 13.7796 3.15995 13.7018C3.12371 13.624 3.07219 13.5543 3.00846 13.4968C2.20645 12.7736 1.56792 11.8878 1.13547 10.8983C0.703025 9.90887 0.486601 8.83859 0.500642 7.75889L0.501142 7.75839ZM6.04775 6.29778L3.70141 10.0313C3.46693 10.3827 3.9149 10.7916 4.24837 10.5311L6.77419 8.61765C6.85712 8.553 6.95927 8.51789 7.06442 8.51789C7.16958 8.51789 7.27173 8.553 7.35465 8.61765L9.21902 10.0183C9.35191 10.1169 9.50368 10.187 9.66487 10.2244C9.82607 10.2618 9.99324 10.2655 10.156 10.2355C10.3187 10.2054 10.4735 10.1422 10.6107 10.0497C10.7479 9.95717 10.8645 9.83741 10.9534 9.69786L13.2997 5.96438C13.5342 5.61297 13.0862 5.21208 12.7528 5.46451L10.2269 7.37799C10.1454 7.44254 10.0445 7.47766 9.94047 7.47766C9.83647 7.47766 9.73552 7.44254 9.65399 7.37799L7.78712 5.97737C7.65442 5.87708 7.5023 5.80549 7.34043 5.76716C7.17856 5.72883 7.01048 5.72459 6.84688 5.75473C6.68328 5.78487 6.52775 5.84871 6.39017 5.9422C6.25259 6.0357 6.13598 6.15679 6.04775 6.29778Z" fill="#023069"/>
</svg>
