<svg width="16" height="16" viewBox="0 0 16 16" fill="none" xmlns="http://www.w3.org/2000/svg">
<path d="M11.1616 10.2645L10.7571 10.6909C10.7571 10.6909 9.79447 11.7036 7.16782 8.93841C4.54117 6.17321 5.50384 5.16049 5.50384 5.16049L5.75806 4.89131C6.3865 4.2306 6.44605 3.16895 5.89761 2.39341L4.77762 0.809399C4.09851 -0.150609 2.78741 -0.277669 2.00964 0.541162L0.61409 2.00941C0.229204 2.416 -0.0285723 2.94118 0.00253865 3.52471C0.0825381 5.01837 0.720756 8.23064 4.27984 11.9784C8.05493 15.9521 11.5971 16.1102 13.0451 15.9672C13.5038 15.922 13.902 15.6754 14.2229 15.3366L15.4851 14.0076C16.3384 13.1107 16.0984 11.5718 15.0069 10.9441L13.3091 9.96618C12.5927 9.55488 11.7216 9.67535 11.1616 10.2645Z" fill="#023069"/>
</svg>
