<svg width="33" height="32" viewBox="0 0 33 32" fill="none" xmlns="http://www.w3.org/2000/svg">
<path d="M22.8232 20.5291L22.0143 21.3818C22.0143 21.3818 20.0889 23.4072 14.8356 17.8768C9.58235 12.3464 11.5077 10.321 11.5077 10.321L12.0161 9.78263C13.273 8.46121 13.3921 6.3379 12.2952 4.78682L10.0552 1.6188C8.69702 -0.301218 6.07482 -0.555337 4.51927 1.08232L1.72818 4.01882C0.958408 4.832 0.442855 5.88236 0.505077 7.04943C0.665076 10.0367 1.94151 16.4613 9.05969 23.9569C16.6099 31.9042 23.6943 32.2205 26.5902 31.9343C27.5076 31.844 28.304 31.3508 28.9458 30.6731L31.4702 28.0152C33.1769 26.2213 32.6969 23.1437 30.5138 21.8881L27.1182 19.9324C25.6854 19.1098 23.9431 19.3507 22.8232 20.5291Z" fill="#023069"/>
</svg>
