<svg width="17" height="16" viewBox="0 0 17 16" fill="none" xmlns="http://www.w3.org/2000/svg">
<path fill-rule="evenodd" clip-rule="evenodd" d="M8.5 0C4.0816 0 0.5 3.5816 0.5 8C0.5 9.512 0.92 10.928 1.6504 12.1344L0.9368 14.56C0.895828 14.6993 0.893132 14.847 0.928996 14.9877C0.964859 15.1283 1.03796 15.2567 1.14061 15.3594C1.24326 15.462 1.37167 15.5351 1.51233 15.571C1.653 15.6069 1.80073 15.6042 1.94 15.5632L4.3656 14.8496C5.61254 15.6041 7.04258 16.002 8.5 16C12.9184 16 16.5 12.4184 16.5 8C16.5 3.5816 12.9184 0 8.5 0ZM6.6904 9.8104C8.3088 11.428 9.8536 11.6416 10.3992 11.6616C11.2288 11.692 12.0368 11.0584 12.3512 10.3232C12.3909 10.2317 12.4053 10.1313 12.3929 10.0324C12.3805 9.93344 12.3418 9.83965 12.2808 9.7608C11.8424 9.2008 11.2496 8.7984 10.6704 8.3984C10.5495 8.31479 10.4009 8.28124 10.2557 8.30481C10.1106 8.32837 9.98026 8.40722 9.892 8.5248L9.412 9.2568C9.38677 9.29615 9.34744 9.32437 9.30208 9.33567C9.25672 9.34698 9.20875 9.34051 9.168 9.3176C8.8424 9.1312 8.368 8.8144 8.0272 8.4736C7.6864 8.1328 7.3888 7.68 7.2216 7.3752C7.20087 7.33648 7.19488 7.29155 7.20473 7.24875C7.21459 7.20594 7.23962 7.16816 7.2752 7.1424L8.0144 6.5936C8.11989 6.50187 8.18797 6.37456 8.20567 6.23589C8.22338 6.09722 8.18947 5.95689 8.1104 5.8416C7.752 5.3168 7.3344 4.6496 6.7288 4.2072C6.65064 4.15056 6.55909 4.11525 6.46315 4.10473C6.3672 4.09421 6.27017 4.10884 6.1816 4.1472C5.4456 4.4624 4.8088 5.2704 4.8392 6.1016C4.8592 6.6472 5.0728 8.192 6.6904 9.8104Z" fill="#023069"/>
</svg>
